<svg viewBox="0 0 204 50" fill="none" xmlns="http://www.w3.org/2000/svg">
    <path
        d="M29.9952 15.2833C27.1621 12.4502 21.7015 12.8485 17.8341 14.0819L17.4872 14.3003L0.186646 31.4338L0.829071 33.027L21.618 33.1812C21.8364 33.1812 22.1255 33.1812 22.4017 33.1812C22.8386 33.1812 23.2562 33.1812 23.3718 33.1812C25.3752 33.0271 27.2924 32.3016 28.8958 31.0907C30.4993 29.8798 31.7219 28.2344 32.4184 26.3497C33.1149 24.465 33.2563 22.42 32.8256 20.4573C32.395 18.4947 31.4104 16.6968 29.9888 15.2768M28.5754 28.7292C27.1482 30.155 25.2606 31.0271 23.2497 31.1897C22.7554 31.2153 22.2601 31.2153 21.7657 31.1897L3.42447 31.042L18.7206 15.8936C23.5195 14.4417 27.13 15.2511 28.5754 16.6966C30.167 18.2944 31.0606 20.4577 31.0606 22.7129C31.0606 24.9681 30.167 27.1314 28.5754 28.7292Z"
        fill="#3999D4" />
    <path
        d="M29.9952 15.2833C27.1621 12.4502 21.7015 12.8485 17.8341 14.0819L17.4872 14.3003L0.186646 31.4338L0.829071 33.027L21.618 33.1812C21.8364 33.1812 22.1255 33.1812 22.4017 33.1812C22.8386 33.1812 23.2562 33.1812 23.3718 33.1812C25.3752 33.0271 27.2924 32.3016 28.8958 31.0907C30.4993 29.8798 31.7219 28.2344 32.4184 26.3497C33.1149 24.465 33.2563 22.42 32.8256 20.4573C32.395 18.4947 31.4104 16.6968 29.9888 15.2768M28.5754 28.7292C27.1482 30.155 25.2606 31.0271 23.2497 31.1897C22.7554 31.2153 22.2601 31.2153 21.7657 31.1897L3.42447 31.042L18.7206 15.8936C23.5195 14.4417 27.13 15.2511 28.5754 16.6966C30.167 18.2944 31.0606 20.4577 31.0606 22.7129C31.0606 24.9681 30.167 27.1314 28.5754 28.7292Z"
        fill="#2077BD" />
    <path
        d="M17.9302 3.21215C16.5127 1.79072 14.7173 0.805543 12.757 0.373417C10.7966 -0.0587092 8.75341 0.0803348 6.86966 0.774065C4.9859 1.4678 3.34056 2.68712 2.1287 4.28749C0.916828 5.88785 0.189254 7.80215 0.0322266 9.80343V10.2403C0.0322266 10.5101 0.0322266 10.7799 0.0322266 11.0369V32.0249C0.0342932 32.2257 0.0966439 32.4213 0.211194 32.5863C0.325744 32.7512 0.487209 32.8779 0.674652 32.95C0.797028 33.0001 0.927876 33.0263 1.06011 33.0271C1.30279 33.0195 1.53492 32.9262 1.71538 32.7637L10.311 24.2387L18.7075 15.8872C18.8213 15.7794 18.9245 15.6611 19.0159 15.5339H19.0545L19.138 15.2962C20.4164 11.5637 20.8725 6.16088 17.9302 3.21215ZM17.3456 14.4739C15.9387 15.8551 5.78194 25.8962 2.0109 29.6287V10.9983C1.99855 10.7844 1.99855 10.5699 2.0109 10.3559V9.93834C2.14448 8.32021 2.73841 6.77411 3.72251 5.4827C4.70662 4.19129 6.0398 3.20853 7.56453 2.65052C9.08927 2.09251 10.7419 1.98256 12.3271 2.33366C13.9123 2.68477 15.3639 3.48225 16.5104 4.63191C18.6048 6.72621 18.4377 11.0562 17.3135 14.4739"
        fill="#D4202D" />
    <path
        d="M65.6687 16.0606L68.097 14.6666C74.4506 9.0325 70.3327 0.584607 62.2509 0H46.897V33.0207H63.3431C69.0285 32.571 73.2107 28.5622 72.2921 22.6198C72.0242 20.9663 71.2386 19.4404 70.0484 18.2617C68.8582 17.083 67.3247 16.3124 65.6687 16.0606ZM51.0663 3.77746H62.0454C63.2403 3.83249 64.3764 4.31152 65.25 5.12861C66.1236 5.94569 66.6775 7.04734 66.8122 8.2359C67.1527 12.2125 64.8399 14.0177 61.0882 14.2619C57.8246 14.4739 54.3491 14.1077 51.0599 14.2619L51.0663 3.77746ZM65.8036 28.2667C64.9624 28.741 64.045 29.0649 63.0925 29.2239H51.0663V18.0329H63.0925C64.0451 18.1948 64.9624 18.5209 65.8036 18.9965C68.7459 20.8531 68.7459 26.4358 65.8036 28.2924"
        fill="#05203F" />
    <path
        d="M192.92 19.973C195.895 19.6775 199.004 18.8745 201.002 16.5103C206.084 10.5294 202.036 0.134909 193.801 0H178.318V33.0207H182.52V19.9152H186.303C186.822 19.9581 187.326 20.1041 187.787 20.3446C188.249 20.5851 188.657 20.9152 188.989 21.3157L198.844 33.0207H203.835L192.92 19.973ZM182.52 16.1506V3.77746C185.809 3.93165 189.284 3.57831 192.548 3.77746C195.811 3.97661 198.156 5.14583 198.683 8.55711C199.242 12.1932 197.963 15.4889 193.993 16.0092C190.19 16.3048 186.342 16.0671 182.52 16.1442"
        fill="#05203F" />
    <path d="M146.698 0.00646973V33.0271H169.806V29.2497H150.899V18.2449H168.444V14.4739H150.899V3.77751H169.388V0.00646973H146.698Z" fill="#05203F" />
    <path d="M92.1238 4.20146L98.4774 20.2621H85.661L92.1238 4.20146ZM89.8047 0L76.3137 33.0271H80.618L84.2413 24.0331H99.8779L103.52 33.0271H107.825L94.4365 0.109212L89.8047 0Z" fill="#05203F" />
    <path d="M140.287 0H135.301L124.547 12.977C124.547 12.977 123.185 14.5574 122.035 14.5766C121.31 14.6302 120.582 14.6302 119.857 14.5766H118.02V0H113.921V33.0207H118.02V18.3477H122.022C123.185 18.3477 124.554 20.0244 124.554 20.0244L135.719 33.0271H140.691L126.648 16.5168L140.287 0Z" fill="#05203F" />
    <path d="M140.287 0H135.301L124.547 12.977C124.547 12.977 123.185 14.5574 122.035 14.5766C121.31 14.6302 120.582 14.6302 119.857 14.5766H118.02V0H113.921V33.0207H118.02V18.3477H122.022C123.185 18.3477 124.554 20.0244 124.554 20.0244L135.719 33.0271H140.691L126.648 16.5168L140.287 0Z" fill="#05203F" />
    <path d="M50.1993 41.777V44.8735H47.5461V41.777H46.6595V49.0685H47.5461V45.6058H50.1993V49.0685H51.0859V41.777H50.1993Z" fill="#05203F" />
    <path d="M54.1438 41.777V49.0685H58.2039V48.3361H55.0303V45.6572H57.4587V44.9249H55.0303V42.5093H58.114V41.777H54.1438Z" fill="#05203F" />
    <path d="M62.6301 42.6442L63.5359 46.2547H61.7115L62.6301 42.6442ZM62.1547 41.7577L60.1118 49.0685H61.0305L61.5508 46.9806H63.7415L64.2747 49.0685H65.1741L63.2083 41.7577H62.1547Z" fill="#05203F" />
    <path
        d="M69.755 41.7577C70.2739 41.7493 70.7844 41.8898 71.2261 42.1624C71.4661 42.3531 71.6572 42.5983 71.7834 42.8776C71.9097 43.1569 71.9675 43.4623 71.952 43.7685C71.9817 44.1755 71.8813 44.5815 71.6654 44.9278C71.4495 45.2742 71.1292 45.5431 70.7507 45.6957L72.1191 49.0813H71.1683L69.9413 45.9013H68.5472V49.0813H67.6606V41.7577H69.755ZM68.5215 42.49V45.1368H69.62C69.8104 45.1588 70.0033 45.1379 70.1846 45.0757C70.3658 45.0135 70.5309 44.9115 70.6676 44.7772C70.8044 44.6429 70.9093 44.4798 70.9748 44.2997C71.0403 44.1196 71.0647 43.9271 71.0462 43.7363C71.0554 43.5607 71.0257 43.3852 70.9593 43.2223C70.8928 43.0595 70.7912 42.9133 70.6617 42.7943C70.5322 42.6752 70.3781 42.5862 70.2102 42.5336C70.0424 42.481 69.865 42.4662 69.6907 42.49H68.5215Z"
        fill="#05203F" />
    <path d="M73.757 41.777V42.5222H75.4915V49.0685H76.3781V42.5222H78.1255V41.777H73.757Z" fill="#05203F" />
    <path
        d="M89.6246 45.2653C89.5228 46.2037 89.1895 47.1022 88.6546 47.88C88.9694 48.2911 89.1171 48.4453 89.4769 48.4453C89.6039 48.446 89.73 48.4242 89.8495 48.381V49.0684C89.656 49.1412 89.4521 49.1825 89.2456 49.1905C88.7124 49.1905 88.4683 48.895 88.1406 48.4453C87.9125 48.6891 87.637 48.8838 87.331 49.0175C87.025 49.1511 86.695 49.2209 86.3611 49.2226C86.0794 49.2302 85.7991 49.1792 85.5381 49.0729C85.2771 48.9665 85.041 48.8072 84.8447 48.6049C84.6485 48.4026 84.4963 48.1618 84.398 47.8977C84.2996 47.6335 84.2571 47.3519 84.2732 47.0705C84.2883 46.5939 84.4422 46.1321 84.7161 45.7418C84.99 45.3514 85.372 45.0496 85.8151 44.8734C85.4727 44.3615 85.265 43.7716 85.2112 43.1581C85.2103 42.9549 85.2501 42.7536 85.3282 42.566C85.4063 42.3784 85.5212 42.2083 85.6661 42.0658C85.811 41.9233 85.9829 41.8113 86.1718 41.7363C86.3607 41.6613 86.5627 41.6249 86.7658 41.6292C86.9554 41.6172 87.1454 41.6453 87.3234 41.7119C87.5013 41.7784 87.6632 41.8817 87.7985 42.0152C87.9337 42.1486 88.0393 42.3091 88.1082 42.4861C88.1771 42.6631 88.2079 42.8527 88.1984 43.0425C88.1644 43.4717 88.0184 43.8845 87.7749 44.2396C87.5314 44.5947 87.199 44.8797 86.8108 45.0661L88.2434 47.2311C88.6376 46.5707 88.8811 45.8315 88.9565 45.0661L89.6246 45.2653ZM86.1555 45.4195C85.8509 45.5698 85.5934 45.8009 85.4111 46.0875C85.2287 46.3741 85.1284 46.7052 85.1212 47.0448C85.0987 47.2328 85.116 47.4235 85.172 47.6044C85.2279 47.7853 85.3214 47.9524 85.4462 48.0948C85.5711 48.2372 85.7245 48.3517 85.8965 48.4309C86.0685 48.5101 86.2553 48.5522 86.4446 48.5545C86.6991 48.5476 86.9493 48.4868 87.1785 48.3761C87.4078 48.2653 87.6109 48.1072 87.7745 47.9121L86.1555 45.4195ZM86.4511 44.565C86.7333 44.4384 86.9761 44.2378 87.1536 43.9845C87.3312 43.7312 87.4369 43.4345 87.4597 43.126C87.4731 43.0202 87.4644 42.9127 87.4341 42.8103C87.4039 42.708 87.3527 42.6131 87.2839 42.5316C87.215 42.4501 87.13 42.3837 87.0342 42.3368C86.9384 42.2898 86.8339 42.2632 86.7273 42.2587C86.6197 42.2625 86.514 42.2885 86.4168 42.3349C86.3197 42.3814 86.2332 42.4473 86.1626 42.5287C86.0921 42.6101 86.0391 42.7051 86.0069 42.8079C85.9748 42.9106 85.9641 43.0189 85.9757 43.126C86.0266 43.6366 86.1936 44.1288 86.4639 44.565"
        fill="#05203F" />
    <path d="M96.942 41.7577H98.516C101.227 41.7577 101.85 43.9484 101.85 45.3553C101.85 47.2826 100.822 49.0492 98.516 49.0492H96.942V41.7577ZM97.8286 48.3169H98.516C100.302 48.3169 100.912 46.865 100.912 45.4324C100.912 43.6721 100.09 42.4901 98.516 42.4901H97.8286V48.3169Z" fill="#05203F" />
    <path d="M105.506 41.777H104.619V49.0685H105.506V41.777Z" fill="#05203F" />
    <path d="M110.497 42.6442L111.403 46.2547H109.579L110.497 42.6442ZM110.028 41.7577L107.985 49.0428H108.878L109.405 46.9549H111.589L112.123 49.0428H113.022L111.076 41.7577H110.028Z" fill="#05203F" />
    <path
        d="M115.502 41.7576H117.48C117.8 41.7056 118.126 41.7259 118.437 41.8171C118.747 41.9083 119.033 42.068 119.273 42.2844C119.564 42.6484 119.719 43.1031 119.71 43.5693C119.734 43.9258 119.636 44.2799 119.433 44.5739C119.23 44.8679 118.934 45.0844 118.592 45.1882C119.006 45.272 119.375 45.5058 119.628 45.8449C119.88 46.184 119.999 46.6045 119.96 47.0255C119.96 48.169 119.363 49.0556 117.532 49.0556H115.502V41.7576ZM116.388 44.8541H117.358C117.937 44.8541 118.791 44.7963 118.791 43.6528C118.791 42.5093 117.885 42.49 117.506 42.49H116.414L116.388 44.8541ZM116.388 48.3168H117.513C118.418 48.3168 119.041 47.9442 119.041 46.9741C119.056 46.7597 119.017 46.545 118.927 46.3497C118.837 46.1544 118.7 45.9848 118.528 45.8563C118.173 45.6347 117.754 45.5396 117.339 45.5865H116.388V48.3168Z"
        fill="#05203F" />
    <path d="M122.8 41.777V49.0685H126.86V48.3361H123.686V45.6572H126.115V44.9249H123.686V42.5093H126.77V41.777H122.8Z" fill="#05203F" />
    <path d="M128.363 41.777V42.5222H130.104V49.0685H130.991V42.5222H132.738V41.777H128.363Z" fill="#05203F" />
    <path d="M134.8 41.777V49.0685H138.854V48.3361H135.687V45.6572H138.115V44.9249H135.687V42.5093H138.77V41.777H134.8Z" fill="#05203F" />
    <path
        d="M144.758 43.6849C144.559 43.0939 144.302 42.4001 143.293 42.4001C143.137 42.3855 142.979 42.4042 142.83 42.4552C142.681 42.5061 142.545 42.588 142.43 42.6954C142.316 42.8029 142.225 42.9335 142.164 43.0786C142.104 43.2237 142.075 43.38 142.079 43.5372C142.079 44.3016 142.683 44.5458 143.685 44.9248C144.54 45.2524 145.767 45.7278 145.767 47.1219C145.768 47.4196 145.707 47.7142 145.587 47.9869C145.468 48.2595 145.293 48.5042 145.073 48.7051C144.854 48.906 144.594 49.0587 144.312 49.1533C144.03 49.248 143.731 49.2825 143.435 49.2547C142.779 49.2632 142.143 49.0351 141.642 48.6123C141.245 48.2209 140.992 47.7072 140.923 47.154L141.732 46.9292C141.765 47.3602 141.963 47.762 142.285 48.0505C142.607 48.339 143.028 48.4919 143.46 48.4774C143.636 48.4985 143.813 48.4818 143.982 48.4286C144.15 48.3754 144.305 48.2868 144.437 48.1688C144.568 48.0508 144.673 47.9061 144.744 47.7444C144.815 47.5827 144.85 47.4077 144.848 47.2311C144.848 46.3702 144.103 46.0555 143.415 45.7921C142.847 45.6204 142.317 45.3412 141.854 44.9698C141.654 44.7855 141.494 44.5622 141.383 44.3136C141.273 44.0649 141.214 43.7963 141.212 43.5243C141.21 43.2511 141.266 42.9807 141.377 42.7309C141.487 42.4811 141.65 42.2577 141.853 42.0754C142.057 41.8932 142.297 41.7563 142.557 41.6738C142.818 41.5913 143.093 41.5652 143.364 41.597C143.884 41.5856 144.391 41.7627 144.792 42.0956C145.192 42.4285 145.458 42.8948 145.542 43.4087L144.758 43.6849Z"
        fill="#05203F" />
    <path d="M153.623 41.777H152.737V49.0685H153.623V41.777Z" fill="#05203F" />
    <path d="M160.574 41.777V47.5395L157.786 41.777H156.662V49.0685H157.426V42.8627L160.465 49.0685H161.339V41.777H160.574Z" fill="#05203F" />
    <path
        d="M167.763 43.6849C167.57 43.0939 167.307 42.4001 166.298 42.4001C166.146 42.3886 165.993 42.4086 165.849 42.4589C165.705 42.5092 165.572 42.5886 165.46 42.6923C165.348 42.796 165.259 42.9217 165.197 43.0615C165.136 43.2013 165.104 43.3523 165.103 43.505C165.103 44.2695 165.707 44.5136 166.709 44.8927C167.564 45.2203 168.791 45.6957 168.791 47.0898C168.792 47.3874 168.731 47.6821 168.612 47.9547C168.492 48.2274 168.317 48.4721 168.098 48.6729C167.878 48.8738 167.619 49.0265 167.336 49.1212C167.054 49.2159 166.755 49.2504 166.459 49.2226C165.804 49.2311 165.167 49.003 164.667 48.5802C164.27 48.1888 164.016 47.675 163.947 47.1219L164.756 46.897C164.789 47.3281 164.987 47.7298 165.309 48.0183C165.632 48.3068 166.053 48.4598 166.485 48.4453C166.66 48.4663 166.838 48.4497 167.006 48.3965C167.175 48.3433 167.33 48.2547 167.461 48.1367C167.592 48.0187 167.697 47.874 167.768 47.7123C167.839 47.5506 167.874 47.3756 167.872 47.199C167.872 46.3381 167.127 46.0233 166.44 45.7599C165.867 45.6003 165.331 45.332 164.859 44.9698C164.659 44.7855 164.499 44.5622 164.388 44.3136C164.278 44.0649 164.22 43.7963 164.217 43.5243C164.215 43.2511 164.271 42.9807 164.382 42.7309C164.492 42.4811 164.655 42.2577 164.858 42.0754C165.062 41.8932 165.302 41.7563 165.562 41.6738C165.823 41.5913 166.098 41.5652 166.369 41.597C166.889 41.5856 167.396 41.7627 167.797 42.0956C168.197 42.4285 168.463 42.8948 168.547 43.4087L167.763 43.6849Z"
        fill="#05203F" />
    <path d="M170.487 41.777V42.5222H172.221V49.0685H173.108V42.5222H174.855V41.777H170.487Z" fill="#05203F" />
    <path d="M177.811 41.777H176.924V49.0685H177.811V41.777Z" fill="#05203F" />
    <path d="M179.886 41.777V42.5222H181.62V49.0685H182.507V42.5222H184.254V41.777H179.886Z" fill="#05203F" />
    <path d="M187.203 41.7577V46.5823C187.203 47.5395 187.203 48.4582 188.539 48.4582C189.876 48.4582 189.914 47.4881 189.914 46.5309V41.7577H190.749V46.5116C190.749 47.6038 190.749 49.2227 188.507 49.2227C186.374 49.2227 186.323 47.6937 186.323 46.6016V41.7577H187.203Z" fill="#05203F" />
    <path d="M192.811 41.777V42.5222H194.552V49.0685H195.432V42.5222H197.186V41.777H192.811Z" fill="#05203F" />
    <path d="M199.248 41.777V49.0685H203.302V48.3361H200.135V45.6572H202.563V44.9249H200.135V42.5093H203.219V41.777H199.248Z" fill="#05203F" />
</svg>