<?xml version="1.0" encoding="UTF-8"?>
<svg id="Layer_1" xmlns="http://www.w3.org/2000/svg" viewBox="0 0 465.76 270.18">
  <defs>
    <style>
      .cls-1 {
        fill: #fff;
      }
    </style>
  </defs>
  <g>
    <path class="cls-1" d="M277.02,42.04c-7.86-7.86-23.01-6.75-33.76-3.34l-.97.61-48.03,47.57,1.8,4.42,57.73.44c.6.05,1.4.07,2.18.07,1.21,0,2.36-.04,2.68-.05,6.94-.54,13.47-3.54,18.37-8.44,11.37-11.38,11.37-29.89,0-41.27M273.09,79.38c-3.96,3.96-9.22,6.39-14.8,6.83-.8.03-3.1.08-4.12-.01l-50.91-.4,42.46-42.06c13.32-4.03,23.34-1.79,27.36,2.24,9.21,9.21,9.21,24.19,0,33.4"/>
    <path class="cls-1" d="M277.02,42.04c-7.86-7.86-23.01-6.75-33.76-3.34l-.97.61-48.03,47.57,1.8,4.42,57.73.44c.6.05,1.4.07,2.18.07,1.21,0,2.36-.04,2.68-.05,6.94-.54,13.47-3.54,18.37-8.44,11.37-11.38,11.37-29.89,0-41.27M273.09,79.38c-3.96,3.96-9.22,6.39-14.8,6.83-.8.03-3.1.08-4.12-.01l-50.91-.4,42.46-42.06c13.32-4.03,23.34-1.79,27.36,2.24,9.21,9.21,9.21,24.19,0,33.4"/>
    <path class="cls-1" d="M243.53,8.54c-5.51-5.51-12.84-8.54-20.63-8.54s-15.12,3.04-20.63,8.55c-4.86,4.86-7.85,11.31-8.43,18.27l-.06,1.23c-.03.74-.03,1.49,0,2.21v58.27c0,1.12.68,2.13,1.72,2.57.34.14.7.21,1.07.21.73,0,1.44-.29,1.95-.8,0,0,11.93-11.8,23.86-23.6l23.32-23.11c.26-.26.58-.58.85-.98l.12.04.23-.66c3.56-10.41,4.81-25.47-3.36-33.64M241.82,39.8c-3.82,3.83-32.01,31.71-42.48,42.07V30.11c-.03-.62-.03-1.24,0-1.82l.06-1.15c.48-5.53,2.9-10.74,6.82-14.66,4.46-4.46,10.39-6.92,16.7-6.92,6.3,0,12.23,2.46,16.69,6.92,5.81,5.81,5.31,17.88,2.22,27.32"/>
    <path class="cls-1" d="M56.2,211.54c-1.58,1-6.3,2.85-8.05,2.85H12.47v-33.28h35.69c1.75,0,6.46,1.85,8.05,2.85,8.72,5.51,8.72,22.06,0,27.57M12.47,138.82h32.57c7.08,0,13.58,6.23,14.18,13.22,1,11.8-5.87,17.16-16.99,17.88-9.69.62-20.01-.46-29.76,0v-31.1ZM55.79,175.21l7.27-4.09c18.78-16.71,6.58-41.78-17.4-43.48H0s0,97.96,0,97.96h48.79c16.88-1.33,29.3-13.23,26.55-30.86-1.61-10.35-9.39-17.61-19.55-19.53"/>
    <path class="cls-1" d="M402.49,175.52v-36.7c9.76.45,20.06-.61,29.76,0,9.59.6,16.63,4.06,18.2,14.19,1.67,10.78-2.13,20.57-13.91,22.11-11.29.88-22.71.17-34.04.4M433.35,186.87c8.82-.87,18.05-3.27,23.99-10.27,15.06-17.75,3.06-48.6-21.38-48.93l-45.93-.04v97.97h12.47v-38.88h11.26c4.64,0,7.97,4.15,7.97,4.15l29.24,34.73h14.8l-32.41-38.72Z"/>
  </g>
  <polygon class="cls-1" points="308.67 181.74 360.73 181.74 360.73 170.55 308.67 170.55 308.67 138.82 363.53 138.82 363.53 127.63 296.21 127.63 296.21 225.59 364.78 225.59 364.78 214.4 308.67 214.4 308.67 181.74"/>
  <path class="cls-1" d="M115.11,187.65l19.17-47.59,18.86,47.59h-38.03ZM127.41,127.61l-40.03,97.99h12.78l10.74-26.77,46.4.07,10.8,26.7h12.78l-39.74-97.66-13.74-.33Z"/>
  <g>
    <path class="cls-1" d="M277.19,127.63h-14.81l-31.9,38.47s-4.05,4.7-7.46,4.75c-6.9.11-6.46,0-6.46,0h-5.45v-5.47s-.01-37.76-.01-37.76h-12.16v97.97h12.16v-43.54h11.87c3.46,0,7.52,4.97,7.52,4.97l33.13,38.57h14.8l-41.67-48.98,40.43-48.98Z"/>
    <path class="cls-1" d="M277.19,127.63h-14.81l-31.9,38.47s-4.05,4.7-7.46,4.75c-6.9.11-6.46,0-6.46,0h-5.45v-5.47s-.01-37.76-.01-37.76h-12.16v97.97h12.16v-43.54h11.87c3.46,0,7.52,4.97,7.52,4.97l33.13,38.57h14.8l-41.67-48.98,40.43-48.98Z"/>
  </g>
  <polygon class="cls-1" points="39.95 250.99 39.95 258.97 33.1 258.97 33.1 250.99 30.82 250.99 30.82 269.79 33.1 269.79 33.1 260.86 39.95 260.86 39.95 269.79 42.24 269.79 42.24 250.99 39.95 250.99"/>
  <polygon class="cls-1" points="50.13 250.99 50.13 269.79 60.58 269.79 60.58 267.9 52.41 267.9 52.41 260.99 58.67 260.99 58.67 259.1 52.41 259.1 52.41 252.88 60.36 252.88 60.36 250.99 50.13 250.99"/>
  <path class="cls-1" d="M72,253.22l2.34,9.36h-4.71l2.37-9.36ZM70.79,250.99l-5.27,18.8h2.31l1.35-5.38h5.64l1.38,5.38h2.31l-5.02-18.8h-2.71Z"/>
  <path class="cls-1" d="M87.19,252.88v6.82h2.85c2.65,0,3.66-1.58,3.66-3.61,0-2.71-2.08-3.21-3.49-3.21h-3.02ZM90.38,250.99c.31,0,2.48.03,3.81,1.04.9.68,1.8,2.03,1.8,4.09,0,3.41-2.28,4.54-3.1,4.93l3.52,8.74h-2.45l-3.16-8.2h-3.61v8.2h-2.28v-18.8h5.47Z"/>
  <polygon class="cls-1" points="100.69 250.99 100.69 252.9 105.17 252.9 105.17 269.79 107.45 269.79 107.45 252.9 111.97 252.9 111.97 250.99 100.69 250.99"/>
  <g>
    <path class="cls-1" d="M133.44,258.18c1.47-.87,2.59-2.06,2.59-3.72,0-1.38-.82-2.23-1.92-2.23s-1.95.85-1.95,2.23.9,3.1,1.27,3.72M132.68,260.37c-1.18.76-2.68,1.86-2.68,4.2s1.41,3.89,3.41,3.89c1.35,0,2.57-.73,3.44-1.75l-4.17-6.34ZM141.62,259.98c-.54,3.1-1.13,4.76-2.51,6.74.82,1.07,1.18,1.47,2.11,1.47.45,0,.71-.09.96-.17v1.78c-.45.14-.96.31-1.55.31-1.38,0-2-.76-2.85-1.92-.76.7-2.14,2-4.6,2-3.1,0-5.38-2.26-5.38-5.55,0-3.64,2.9-5.1,3.97-5.66-.62-1.07-1.55-2.76-1.55-4.43,0-1.8,1.35-3.95,4-3.95,2.51,0,3.72,1.72,3.72,3.72,0,3.04-2.65,4.65-3.58,5.21l3.69,5.58c.79-1.24,1.41-2.76,1.83-5.58l1.72.45Z"/>
    <path class="cls-1" d="M162.78,267.9h1.78c4.59,0,6.17-3.75,6.17-7.44,0-4.54-2.11-7.58-6.17-7.58h-1.78v15.02ZM160.5,250.99h4.06c6.99,0,8.6,5.64,8.6,9.27,0,4.99-2.65,9.53-8.6,9.53h-4.06v-18.8Z"/>
  </g>
  <rect class="cls-1" x="180.29" y="250.99" width="2.28" height="18.8"/>
  <path class="cls-1" d="M195.45,253.22l2.34,9.36h-4.71l2.37-9.36ZM194.24,250.99l-5.27,18.8h2.31l1.35-5.38h5.64l1.38,5.38h2.31l-5.02-18.8h-2.71Z"/>
  <path class="cls-1" d="M210.64,267.9h2.9c2.34,0,3.95-.96,3.95-3.47,0-.79-.17-2.06-1.32-2.88-.9-.65-1.83-.7-3.07-.7h-2.45v7.05ZM210.64,258.97h2.51c1.49,0,3.69-.14,3.69-3.1s-2.34-2.99-3.38-2.99h-2.82v6.09ZM208.36,250.99h5.1c1.72,0,3.47,0,4.62,1.35,1.04,1.21,1.13,2.73,1.13,3.3,0,3.05-2.08,3.86-2.87,4.17.85.23,3.52.99,3.52,4.74,0,2.96-1.55,5.24-6.26,5.24h-5.24v-18.8Z"/>
  <polygon class="cls-1" points="227.19 250.99 227.19 269.79 237.64 269.79 237.64 267.9 229.47 267.9 229.47 260.99 235.73 260.99 235.73 259.1 229.47 259.1 229.47 252.88 237.42 252.88 237.42 250.99 227.19 250.99"/>
  <polygon class="cls-1" points="241.53 250.99 241.53 252.9 246.01 252.9 246.01 269.79 248.3 269.79 248.3 252.9 252.81 252.9 252.81 250.99 241.53 250.99"/>
  <polygon class="cls-1" points="258.13 250.99 258.13 269.79 268.59 269.79 268.59 267.9 260.42 267.9 260.42 260.99 266.67 260.99 266.67 259.1 260.42 259.1 260.42 252.88 268.36 252.88 268.36 250.99 258.13 250.99"/>
  <path class="cls-1" d="M283.81,255.86c-.51-1.52-1.18-3.35-3.78-3.35s-3.13,1.94-3.13,2.93c0,1.97,1.55,2.59,4.14,3.58,2.2.85,5.35,2.06,5.35,5.66,0,2.34-1.58,5.5-6,5.5-1.61,0-3.44-.48-4.62-1.58-1.33-1.21-1.66-2.73-1.86-3.75l2.09-.59c.28,1.24.93,4,4.45,4,2.82,0,3.58-1.97,3.58-3.21,0-2.23-1.92-3.04-3.69-3.72-2.17-.85-3.04-1.18-4.03-2.06-.99-.87-1.63-2.31-1.63-3.72,0-2.28,1.66-4.96,5.55-4.96,4.23,0,5.21,3.33,5.61,4.68l-2.03.59Z"/>
  <rect class="cls-1" x="304.38" y="250.99" width="2.28" height="18.8"/>
  <polygon class="cls-1" points="324.59 250.99 324.59 265.84 317.41 250.99 314.5 250.99 314.5 269.79 316.48 269.79 316.48 253.78 324.31 269.79 326.57 269.79 326.57 250.99 324.59 250.99"/>
  <path class="cls-1" d="M343.14,255.86c-.51-1.52-1.18-3.35-3.78-3.35s-3.13,1.94-3.13,2.93c0,1.97,1.55,2.59,4.14,3.58,2.2.85,5.35,2.06,5.35,5.66,0,2.34-1.58,5.5-6,5.5-1.61,0-3.44-.48-4.62-1.58-1.33-1.21-1.66-2.73-1.86-3.75l2.09-.59c.28,1.24.93,4,4.45,4,2.82,0,3.58-1.97,3.58-3.21,0-2.23-1.92-3.04-3.69-3.72-2.17-.85-3.04-1.18-4.03-2.06-.99-.87-1.63-2.31-1.63-3.72,0-2.28,1.66-4.96,5.55-4.96,4.23,0,5.21,3.33,5.61,4.68l-2.03.59Z"/>
  <polygon class="cls-1" points="350.16 250.99 350.16 252.9 354.64 252.9 354.64 269.79 356.92 269.79 356.92 252.9 361.43 252.9 361.43 250.99 350.16 250.99"/>
  <rect class="cls-1" x="366.76" y="250.99" width="2.28" height="18.8"/>
  <polygon class="cls-1" points="374.4 250.99 374.4 252.9 378.88 252.9 378.88 269.79 381.16 269.79 381.16 252.9 385.67 252.9 385.67 250.99 374.4 250.99"/>
  <path class="cls-1" d="M393.28,250.99v12.43c0,2.48,0,4.85,3.44,4.85s3.55-2.51,3.55-4.96v-12.32h2.14v12.2c0,2.82,0,6.99-5.78,6.99s-5.64-3.95-5.64-6.76v-12.43h2.28Z"/>
  <polygon class="cls-1" points="407.74 250.99 407.74 252.9 412.22 252.9 412.22 269.79 414.5 269.79 414.5 252.9 419.01 252.9 419.01 250.99 407.74 250.99"/>
  <polygon class="cls-1" points="424.34 250.99 424.34 269.79 434.8 269.79 434.8 267.9 426.62 267.9 426.62 260.99 432.88 260.99 432.88 259.1 426.62 259.1 426.62 252.88 434.57 252.88 434.57 250.99 424.34 250.99"/>
</svg>